<svg xmlns="http://www.w3.org/2000/svg" viewBox="0 0 256 256" width="256" height="256">
  <!-- House outline as solid strokes -->
  <path fill="#000" d="M20 120c-6 0-11-5-11-11 0-3 1-6 4-8L120 24c5-4 11-4 16 0l107 77c3 2 4 5 4 8 0 6-5 11-11 11-2 0-5-1-7-2L128 45 27 118c-2 1-5 2-7 2z"></path>
  <path fill="#000" d="M46 116c6 0 11 5 11 11v92c0 6-5 11-11 11s-11-5-11-11v-92c0-6 5-11 11-11z"></path>
  <path fill="#000" d="M210 116c6 0 11 5 11 11v92c0 6-5 11-11 11s-11-5-11-11v-92c0-6 5-11 11-11z"></path>

  <!-- Inventory blocks -->
  <g fill="#000">
    <rect x="78" y="122" width="34" height="34" rx="8"></rect>
    <rect x="78" y="164" width="34" height="34" rx="8"></rect>
    <rect x="78" y="206" width="34" height="34" rx="8"></rect>

    <rect x="120" y="164" width="34" height="34" rx="8"></rect>
    <rect x="120" y="206" width="34" height="34" rx="8"></rect>

    <rect x="162" y="206" width="34" height="34" rx="8"></rect>
  </g>
</svg>
